<svg width="101" height="91" viewBox="0 0 101 91" fill="none" xmlns="http://www.w3.org/2000/svg">
<path fill-rule="evenodd" clip-rule="evenodd" d="M11.1621 26.8196C11.1621 26.8196 55.8305 15.677 75.2693 10.3735C82.157 8.48666 85.3458 11.9799 85.6774 16.9009C86.1366 23.9893 85.856 33.449 85.856 33.449L13.5856 35.8203L11.1621 26.8196Z" fill="#3694DC"/>
<path fill-rule="evenodd" clip-rule="evenodd" d="M43.3057 2.98085C57.9486 -1.1243 73.0761 7.137 77.0812 21.4158C81.0863 35.6945 72.4384 50.6108 57.7955 54.7159C43.1527 58.8211 27.9996 50.5598 24.02 36.281C20.0149 22.0022 28.6629 7.086 43.3057 2.98085Z" fill="#FFDD5D"/>
<mask id="mask0_271_205325" style="mask-type:luminance" maskUnits="userSpaceOnUse" x="23" y="1" width="56" height="55">
<path d="M43.3067 2.9789C57.9496 -1.12625 73.0771 7.13504 77.0822 21.4138C81.0873 35.6926 72.4394 50.6088 57.7965 54.714C43.1536 58.8191 28.0006 50.5578 24.021 36.279C20.0159 22.0003 28.6638 7.08405 43.3067 2.9789Z" fill="white"/>
</mask>
<g mask="url(#mask0_271_205325)">
<path fill-rule="evenodd" clip-rule="evenodd" d="M44.8625 8.53595C56.3676 5.32323 68.2553 11.7997 71.3931 23.0187C74.5309 34.2122 67.7451 45.9412 56.24 49.154C44.7349 52.3667 32.8472 45.8902 29.7094 34.6712C26.5717 23.4522 33.3574 11.7487 44.8625 8.53595Z" fill="#F5A41E"/>
</g>
<mask id="mask1_271_205325" style="mask-type:luminance" maskUnits="userSpaceOnUse" x="28" y="7" width="45" height="43">
<mask id="mask2_271_205325" style="mask-type:luminance" maskUnits="userSpaceOnUse" x="28" y="7" width="45" height="43">
<path d="M44.8615 8.53595C56.3666 5.32323 68.2544 11.7997 71.3921 23.0187C74.5299 34.2122 67.7442 45.9412 56.2391 49.154C44.734 52.3667 32.8462 45.8902 29.7085 34.6712C26.5707 23.4522 33.3564 11.7487 44.8615 8.53595Z" fill="white"/>
</mask>
<g mask="url(#mask2_271_205325)">
<path d="M43.3057 2.9789C57.9486 -1.12625 73.0761 7.13504 77.0812 21.4138C81.0863 35.6926 72.4384 50.6088 57.7955 54.714C43.1527 58.8191 27.9996 50.5578 24.02 36.279C20.0149 22.0003 28.6629 7.08405 43.3057 2.9789Z" fill="white"/>
</g>
</mask>
<g mask="url(#mask1_271_205325)">
<path fill-rule="evenodd" clip-rule="evenodd" d="M44.9377 11.4695C56.4428 8.25682 68.3305 14.7333 71.4683 25.9523C74.6061 37.1458 67.8203 48.8748 56.3152 52.0876C44.8101 55.3003 32.9224 48.8238 29.7846 37.6048C26.6469 26.4113 33.4326 14.6823 44.9377 11.4695Z" fill="#FEBC2A"/>
</g>
<path fill-rule="evenodd" clip-rule="evenodd" d="M98.2543 36.3578C98.2543 30.9267 93.8411 26.5156 88.4074 26.5156H12.387C6.9533 26.5156 2.54004 30.9267 2.54004 36.3578V78.6332C2.54004 84.0642 6.9533 88.4753 12.387 88.4753H88.4329C93.8666 88.4753 98.2798 84.0642 98.2798 78.6332V36.3578H98.2543Z" fill="#4EB4F4"/>
<path d="M50.1959 73.1807C47.3483 73.1807 44.8441 72.5336 42.7033 71.2395C40.5626 69.9454 38.9066 68.1255 37.7352 65.8001C36.5437 63.4747 35.958 60.7652 35.958 57.6714C35.958 54.5574 36.5639 51.8074 37.7958 49.4213C39.0277 47.0353 40.7646 45.175 43.0265 43.8404C45.2884 42.5059 47.9744 41.8184 51.1047 41.8184C54.6591 41.8184 57.5875 42.6676 59.9302 44.3662C62.2728 46.0647 63.7875 48.4305 64.4742 51.4232H58.2943C57.8298 50.0077 57.0018 48.8956 55.7901 48.107C54.5783 47.3184 53.0233 46.914 51.1249 46.914C48.0956 46.914 45.7529 47.8846 44.117 49.7853C42.4408 51.7265 41.633 54.3552 41.633 57.7118C41.633 61.0685 42.4408 63.6567 44.0766 65.4968C45.7125 67.3369 47.9138 68.2468 50.721 68.2468C53.4676 68.2468 55.5275 67.4987 56.921 66.0225C58.3145 64.5262 59.1627 62.585 59.4455 60.1585H51.7913V55.9729H65.0396V72.6549H59.9302L59.5061 68.6715C58.5165 70.1071 57.3047 71.2193 55.8305 72.0079C54.3562 72.7965 52.478 73.1807 50.1959 73.1807Z" fill="white"/>
</svg>
