<svg width="100" height="91" viewBox="0 0 100 91" fill="none" xmlns="http://www.w3.org/2000/svg">
<g clip-path="url(#clip0_91_51153)">
<ellipse cx="50" cy="79.4771" rx="50" ry="10.8273" fill="#E0E9F9"/>
<path d="M14.4536 0.0367432H72.4012V79.6951H26.949C20.048 79.6951 14.4536 74.1007 14.4536 67.1997V0.0367432Z" fill="#95D2F8"/>
<path d="M14.4536 0.0367432H72.4012V79.6951H33.3529C22.9151 79.6951 14.4536 71.2336 14.4536 60.7958V0.0367432Z" fill="#95D2F8"/>
<path fill-rule="evenodd" clip-rule="evenodd" d="M51.7839 62.0453V63.2949C51.7839 72.3525 59.1266 79.6951 68.1842 79.6951H72.7138C81.7714 79.6951 89.1141 72.3525 89.1141 63.2949V62.0453H51.7839Z" fill="#95D2F8"/>
<path d="M72.4014 68.9706C72.4014 72.2602 73.7509 75.8153 76.9847 76.4188C77.5224 76.5191 78.0738 76.5713 78.6354 76.5713C84.4226 76.5713 89.114 71.0387 89.114 64.214V36.7421L78.517 58.3873L72.4014 45.8955V68.9706Z" fill="#3594DC"/>
<rect x="3.16309" y="4.65961" width="22.6128" height="22.6128" rx="11.3064" fill="#CB3A31"/>
<path fill-rule="evenodd" clip-rule="evenodd" d="M19.0364 18.671C19.5514 19.186 19.5514 20.0191 19.0364 20.5326C18.7789 20.7901 18.4456 20.928 18.0972 20.928C17.764 20.928 17.4308 20.8068 17.1732 20.5326L14.477 17.853L11.7807 20.5326C11.5232 20.7901 11.1899 20.928 10.8415 20.928C10.5083 20.928 10.1599 20.7901 9.90238 20.5326C9.38736 20.0191 9.38736 19.186 9.90238 18.6558L12.5987 15.9747L9.90238 13.2769C9.38736 12.7634 9.38736 11.9151 9.90238 11.4001C10.4174 10.8836 11.2505 10.8836 11.7807 11.4001L14.477 14.0949L17.1581 11.4001C17.6883 10.8836 18.5214 10.8836 19.0364 11.4001C19.5514 11.9151 19.5514 12.7634 19.0364 13.2769L16.3401 15.9747L19.0364 18.671Z" fill="white"/>
<path fill-rule="evenodd" clip-rule="evenodd" d="M44.4149 30.637L43.4067 34.0648V39.5144L45.6489 43.0159L43.4524 51.2985L44.2761 43.565L43.4067 42.3278V52.7171C45.0084 51.6493 48.3214 49.4223 48.7607 49.0562C48.8132 49.0125 48.8911 48.9483 48.9914 48.8658L48.992 48.8652C49.9415 48.0833 52.8869 45.6578 55.1214 43.3819C57.5924 40.8651 58.6907 38.2568 58.828 35.3281C58.9653 32.3995 56.2196 27.137 51.186 27.0455C47.4799 26.9781 45.2466 29.2312 44.4149 30.637ZM43.4066 42.3276V52.7171C41.805 51.6493 38.492 49.4223 38.0527 49.0562C38.0001 49.0124 37.9219 48.9481 37.8214 48.8653L37.8213 48.8652C36.8718 48.0833 33.9264 45.6578 31.692 43.382C29.2209 40.8652 28.1227 38.2568 27.9854 35.3282C27.8481 32.3995 30.5937 27.1371 35.6274 27.0455C39.6543 26.9723 41.9423 29.6386 42.5829 30.9809L42.7981 31.3156L40.7068 38.4856L43.4066 42.3276ZM43.4066 39.5142L42.3084 37.7992L43.4066 34.0653V39.5142Z" fill="#3594DC"/>
</g>
<defs>
<clipPath id="clip0_91_51153">
<rect width="100" height="90.2676" fill="white" transform="translate(0 0.0367432)"/>
</clipPath>
</defs>
</svg>
