<svg width="98" height="88" viewBox="0 0 98 88" fill="none" xmlns="http://www.w3.org/2000/svg">
<g clip-path="url(#clip0_91_50989)">
<ellipse cx="48.9999" cy="76.597" rx="48.2104" ry="10.4397" fill="#E0E9F9"/>
<path d="M14.7258 0H70.5993V76.8072H26.774C20.12 76.8072 14.7258 71.4131 14.7258 64.759V0Z" fill="#95D2F8"/>
<path d="M14.7258 0H70.5993V76.8072H32.9487C22.8845 76.8072 14.7258 68.6486 14.7258 58.5843V0Z" fill="#95D2F8"/>
<path fill-rule="evenodd" clip-rule="evenodd" d="M50.72 59.7891V60.994C50.72 69.7274 57.7998 76.8072 66.5332 76.8072H70.9007C79.6341 76.8072 86.714 69.7274 86.714 60.9939V59.7891H50.72Z" fill="#95D2F8"/>
<path d="M70.5996 66.4665C70.5996 69.6384 71.9008 73.0663 75.0189 73.6481C75.5374 73.7449 76.069 73.7952 76.6106 73.7952C82.1906 73.7952 86.7141 68.4606 86.7141 61.8802V35.3915L76.4964 56.2621L70.5996 44.2173V66.4665Z" fill="#3594DC"/>
<rect x="24.3645" y="19.5783" width="36.5964" height="3.76506" fill="#3594DC"/>
<rect x="24.3645" y="38.4036" width="36.5964" height="3.76506" fill="#3594DC"/>
<rect x="24.3645" y="47.2892" width="36.5964" height="3.76506" fill="#3594DC"/>
<rect x="24.3645" y="29.5181" width="36.5964" height="3.76506" fill="#3594DC"/>
<rect x="3.83936" y="4.4574" width="21.8034" height="21.8034" rx="10.9017" fill="#CB3A31"/>
<path fill-rule="evenodd" clip-rule="evenodd" d="M19.1446 17.9673C19.6412 18.4639 19.6412 19.2672 19.1446 19.7623C18.8963 20.0106 18.575 20.1435 18.2391 20.1435C17.9178 20.1435 17.5964 20.0267 17.3482 19.7623L14.7484 17.1786L12.1486 19.7623C11.9003 20.0106 11.579 20.1435 11.2431 20.1435C10.9217 20.1435 10.5858 20.0106 10.3375 19.7623C9.84094 19.2672 9.84094 18.4639 10.3375 17.9527L12.9373 15.3675L10.3375 12.7663C9.84094 12.2712 9.84094 11.4533 10.3375 10.9567C10.8341 10.4586 11.6374 10.4586 12.1486 10.9567L14.7484 13.555L17.3335 10.9567C17.8447 10.4586 18.648 10.4586 19.1446 10.9567C19.6412 11.4533 19.6412 12.2712 19.1446 12.7663L16.5449 15.3675L19.1446 17.9673Z" fill="white"/>
</g>
<defs>
<clipPath id="clip0_91_50989">
<rect width="96.4208" height="87.0367" fill="white" transform="translate(0.789551)"/>
</clipPath>
</defs>
</svg>
