<svg width="40" height="40" viewBox="0 0 40 40" fill="none" xmlns="http://www.w3.org/2000/svg">
<rect x="0.5" y="0.5" width="39" height="39" rx="7.5" fill="white"/>
<path fill-rule="evenodd" clip-rule="evenodd" d="M16.8777 14.3786C16.8777 16.2452 15.3389 17.7582 13.4389 17.7582C11.54 17.7582 10 16.2452 10 14.3786C10 12.513 11.54 11 13.4389 11C15.3389 11 16.8777 12.513 16.8777 14.3786ZM28.4933 12.8983C29.3244 12.8983 30 13.562 30 14.3786C30 15.1962 29.3244 15.8599 28.4933 15.8599H21.9178C21.0856 15.8599 20.4101 15.1962 20.4101 14.3786C20.4101 13.562 21.0856 12.8983 21.9178 12.8983H28.4933ZM11.5078 23.958H18.0833C18.9155 23.958 19.5911 24.6217 19.5911 25.4393C19.5911 26.2558 18.9155 26.9206 18.0833 26.9206H11.5078C10.6756 26.9206 10 26.2558 10 25.4393C10 24.6217 10.6756 23.958 11.5078 23.958ZM26.5611 28.7778C28.4611 28.7778 30 27.2648 30 25.3992C30 23.5325 28.4611 22.0196 26.5611 22.0196C24.6623 22.0196 23.1223 23.5325 23.1223 25.3992C23.1223 27.2648 24.6623 28.7778 26.5611 28.7778Z" fill="#130F26"/>
<rect x="0.5" y="0.5" width="39" height="39" rx="7.5" stroke="#DBDFE3"/>
</svg>
