<svg width="25" height="24" viewBox="0 0 25 24" fill="none" xmlns="http://www.w3.org/2000/svg">
<path fill-rule="evenodd" clip-rule="evenodd" d="M8.17024 2H16.8402C20.2302 2 22.5002 4.38 22.5002 7.92V16.09C22.5002 19.62 20.2302 22 16.8402 22H8.17024C4.78024 22 2.50024 19.62 2.50024 16.09V7.92C2.50024 4.38 4.78024 2 8.17024 2ZM8.02024 13.2C7.36024 13.2 6.82024 12.66 6.82024 12C6.82024 11.34 7.36024 10.801 8.02024 10.801C8.68024 10.801 9.22024 11.34 9.22024 12C9.22024 12.66 8.68024 13.2 8.02024 13.2ZM11.3002 12C11.3002 12.66 11.8402 13.2 12.5002 13.2C13.1602 13.2 13.7002 12.66 13.7002 12C13.7002 11.34 13.1602 10.801 12.5002 10.801C11.8402 10.801 11.3002 11.34 11.3002 12ZM15.7802 12C15.7802 12.66 16.3202 13.2 16.9802 13.2C17.6402 13.2 18.1702 12.66 18.1702 12C18.1702 11.34 17.6402 10.801 16.9802 10.801C16.3202 10.801 15.7802 11.34 15.7802 12Z" fill="#6F7072"/>
</svg>
