<svg width="25" height="24" viewBox="0 0 25 24" fill="none" xmlns="http://www.w3.org/2000/svg">
<path fill-rule="evenodd" clip-rule="evenodd" d="M9.42574 16.39H14.8119C15.2178 16.39 15.5545 16.05 15.5545 15.64C15.5545 15.23 15.2178 14.9 14.8119 14.9H9.42574C9.0198 14.9 8.68317 15.23 8.68317 15.64C8.68317 16.05 9.0198 16.39 9.42574 16.39ZM12.7723 9.9H9.42574C9.0198 9.9 8.68317 10.24 8.68317 10.65C8.68317 11.06 9.0198 11.39 9.42574 11.39H12.7723C13.1782 11.39 13.5149 11.06 13.5149 10.65C13.5149 10.24 13.1782 9.9 12.7723 9.9ZM19.8381 9.02561C20.0708 9.02292 20.3242 9.02 20.5545 9.02C20.802 9.02 21 9.22 21 9.47V17.51C21 19.99 19.0099 22 16.5545 22H8.67327C6.09901 22 4 19.89 4 17.29V6.51C4 4.03 6 2 8.46535 2H13.7525C14.0099 2 14.2079 2.21 14.2079 2.46V5.68C14.2079 7.51 15.703 9.01 17.5149 9.02C17.9381 9.02 18.3112 9.02316 18.6377 9.02593C18.8917 9.02809 19.1175 9.03 19.3168 9.03C19.4578 9.03 19.6405 9.02789 19.8381 9.02561ZM20.1111 7.566C19.2972 7.569 18.3378 7.566 17.6477 7.559C16.5527 7.559 15.6507 6.648 15.6507 5.542V2.906C15.6507 2.475 16.1685 2.261 16.4646 2.572C17.0004 3.13476 17.7368 3.90834 18.4699 4.67837C19.2009 5.44632 19.9286 6.21074 20.4507 6.759C20.7398 7.062 20.5279 7.565 20.1111 7.566Z" fill="#6F7072"/>
</svg>
